<?xml version="1.0" encoding="UTF-8"?>
<svg id="Layer_1" data-name="Layer 1" xmlns="http://www.w3.org/2000/svg" viewBox="0 0 243.54 348">
  <path d="M241.32,193.59c-2.99-20.51-10.07-39.54-22.39-60.42-.75,8.58-.75,13.43-1.49,18.28-1.86,12.3-12.68,20.89-25.36,20.51-12.68-.38-21.64-9.69-22.01-23.12-.38-4.47.38-9.32.75-13.8,3.74-61.93-21.64-106.31-80.56-135.03,9.69,29.84,5.97,57.06-8.58,81.68-8.96,16.04-19.4,30.95-29.84,45.88-11.19,16.04-23.87,29.84-33.94,46.24C-17.16,229.39,1.11,304.74,56.69,337.93c7.08,4.1,14.18,7.46,21.26,10.07-2.24-2.61-4.1-5.6-5.97-8.58-9.32-15.66-12.3-32.83-9.32-51.11,1.49-10.07,4.85-19.78,11.19-30.22.38,4.1.38,6.71.75,8.96,1.13,6.35,6.35,10.44,12.68,10.07,6.35-.38,10.82-4.85,10.82-11.57.38-2.24-.38-4.47-.38-7.08-1.86-30.95,10.82-52.59,39.91-67.15-4.85,14.91-2.99,28.34,4.1,40.66,4.47,7.83,9.69,15.29,14.91,22.75,5.6,7.83,11.93,14.91,16.79,22.75,12.68,20.51,11.19,46.24-1.86,65.27,20.14-10.07,38.05-26.11,50.36-47.75,19.39-30.55,25.36-65.24,19.39-101.42h0Z"/>
</svg>