<?xml version="1.0" encoding="UTF-8"?>
<svg id="Layer_1" data-name="Layer 1" xmlns="http://www.w3.org/2000/svg" viewBox="0 0 626 626">
  <defs>
    <style>
      .cls-1 {
        fill: #efd9a8;
      }

      .cls-2 {
        fill: #352112;
      }
    </style>
  </defs>
  <rect class="cls-1" width="626" height="626" rx="141.03" ry="141.03"/>
  <g>
    <path class="cls-2" d="M275.76,372.04c2.08,7.35,8.84,18.56,21.05,22.06-.24-10.14-2.19-31.43,15.18-51.88.12.24,2.19,13.28,6.58,22,3.74,7.29,9.72,13.28,13.4,20.52,1.48,2.96,2.67,6.23,3.14,9.55,6.46-2.25,11.86-13.58,14.23-20.22,4.98-14.05,2.49-45.06-36.47-82.6-37.24,35.87-41.15,66.29-37.12,80.64v-.06Z"/>
    <path class="cls-2" d="M398.09,394.75v-103.89c0-20.87-13.58-38.6-32.38-44.89v-3.79c0-8.18-6.58-14.82-14.71-14.94-3.14,0-6.05-2.08-6.58-5.16-.36-2.02-.89-4.03-1.54-5.93,13.76-10.79,21.58-28.82,17.67-48.39s-19.03-33.92-37.83-37.59c-31.07-6.11-58.46,17.67-58.46,47.73,0,15.54,7.35,29.35,18.68,38.25-.71,1.9-1.25,3.85-1.54,5.93-.47,3.08-3.44,5.1-6.58,5.16-8.12.12-14.71,6.76-14.71,14.94v3.79c-18.8,6.29-32.38,24.01-32.38,44.89v103.89c0,17.91,9.96,33.5,24.67,41.51,4.63,2.55,7.71,7.12,7.71,12.39v.47c0,3.74-1.54,7.35-4.27,9.96l-19.75,13.22h-.36c-5.22,0-10.26,3.08-11.86,8.06-2.85,8.54,3.44,16.43,11.56,16.43h154.41c6.11,0,11.8-4.21,12.81-10.26,1.25-7.65-4.68-14.29-12.1-14.29h-.71l-19.75-13.22c-2.73-2.61-4.27-6.23-4.27-9.96v-.47c0-5.28,3.08-9.84,7.71-12.39,14.71-8.06,24.67-23.66,24.67-41.51l-.12.06ZM312.88,149.74c15.54,0,28.11,12.63,28.11,28.11,0,9.13-4.45,17.14-11.15,22.3-4.92-3.08-10.73-4.92-16.96-4.92s-12.04,1.84-16.96,4.92c-6.76-5.16-11.15-13.16-11.15-22.3,0-15.54,12.63-28.11,28.11-28.11ZM350.71,417.16h-15.65c-4.51,0-8.66-2.55-10.61-6.58-3.56-7.47-8.89-14.11-7.17-23.13.65-2.37-.24-5.1-2.67-6.11-7.47-2.37-8.18,9.01-8.6,13.58-.18,2.79.06,5.69.59,8.6,1.42,7.47-4.09,13.7-11.74,13.7h-19.8c-12.39,0-22.41-10.02-22.41-22.41v-103.95c0-12.39,10.02-22.41,22.41-22.41h75.72c12.39,0,22.41,10.02,22.41,22.41v103.89c0,12.39-10.02,22.41-22.41,22.41h-.06Z"/>
  </g>
</svg>