<?xml version="1.0" encoding="UTF-8"?>
<svg id="Layer_1" data-name="Layer 1" xmlns="http://www.w3.org/2000/svg" viewBox="0 0 626 626">
  <defs>
    <style>
      .cls-1 {
        fill: #efd9a8;
      }

      .cls-2 {
        fill: #352112;
      }
    </style>
  </defs>
  <rect class="cls-1" width="626" height="626" rx="141.03" ry="141.03"/>
  <path class="cls-2" d="M443.54,334.39c-3.26-22.4-10.99-43.17-24.45-65.98-.82,9.37-.82,14.66-1.62,19.96-2.03,13.44-13.84,22.81-27.69,22.4-13.84-.41-23.63-10.58-24.04-25.25-.41-4.88.41-10.17.82-15.07,4.08-67.62-23.63-116.08-87.97-147.44,10.58,32.59,6.52,62.31-9.37,89.2-9.78,17.51-21.18,33.8-32.59,50.1-12.22,17.51-26.07,32.59-37.06,50.5-38.29,60.69-18.33,142.97,42.35,179.21,7.73,4.47,15.48,8.14,23.22,10.99-2.44-2.85-4.47-6.11-6.52-9.37-10.17-17.11-13.44-35.85-10.17-55.81,1.62-10.99,5.29-21.59,12.22-33,.41,4.47.41,7.32.82,9.78,1.23,6.93,6.93,11.4,13.84,10.99,6.93-.41,11.81-5.29,11.81-12.63.41-2.44-.41-4.88-.41-7.73-2.03-33.8,11.81-57.43,43.58-73.32-5.29,16.29-3.26,30.95,4.47,44.4,4.88,8.55,10.58,16.7,16.29,24.84,6.11,8.55,13.03,16.29,18.33,24.84,13.84,22.4,12.22,50.5-2.03,71.27,21.99-10.99,41.55-28.51,54.99-52.14,21.17-33.36,27.69-71.24,21.17-110.74h0Z"/>
</svg>