<?xml version="1.0" encoding="UTF-8"?>
<svg id="Layer_1" data-name="Layer 1" xmlns="http://www.w3.org/2000/svg" viewBox="0 0 170.51 348.92">
  <defs>
    <style>
      .cls-1 {
        fill: #352112;
      }
    </style>
  </defs>
  <path class="cls-1" d="M49.91,230.49c1.97,6.98,8.39,17.62,19.98,20.94-.23-9.62-2.08-29.83,14.41-49.25.11.23,2.08,12.61,6.25,20.88,3.55,6.92,9.23,12.61,12.72,19.47,1.41,2.81,2.53,5.91,2.98,9.06,6.13-2.14,11.26-12.89,13.51-19.19,4.73-13.34,2.36-42.77-34.61-78.4-35.35,34.05-39.06,62.93-35.23,76.54v-.06Z"/>
  <path class="cls-1" d="M166.02,252.05v-98.61c0-19.81-12.89-36.64-30.73-42.61v-3.6c0-7.77-6.25-14.07-13.96-14.18-2.98,0-5.74-1.97-6.25-4.9-.34-1.91-.84-3.83-1.46-5.63,13.06-10.24,20.49-27.35,16.77-45.93C126.68,18.03,112.32,4.41,94.48.91c-29.49-5.8-55.49,16.77-55.49,45.31,0,14.75,6.98,27.86,17.73,36.3-.68,1.8-1.18,3.66-1.46,5.63-.45,2.93-3.26,4.84-6.25,4.9-7.71.11-13.96,6.42-13.96,14.18v3.6c-17.84,5.97-30.73,22.79-30.73,42.61v98.61c0,17,9.46,31.8,23.41,39.4,4.39,2.42,7.32,6.75,7.32,11.76v.45c0,3.55-1.46,6.98-4.05,9.46l-18.74,12.55h-.34c-4.95,0-9.74,2.93-11.26,7.65-2.7,8.1,3.26,15.59,10.98,15.59h146.56c5.8,0,11.2-4,12.16-9.74,1.18-7.26-4.45-13.56-11.48-13.56h-.68l-18.74-12.55c-2.59-2.48-4.05-5.91-4.05-9.46v-.45c0-5.01,2.93-9.34,7.32-11.76,13.96-7.65,23.41-22.46,23.41-39.4l-.12.06ZM85.14,19.49c14.75,0,26.68,11.99,26.68,26.68,0,8.67-4.22,16.27-10.58,21.16-4.67-2.93-10.19-4.67-16.1-4.67s-11.43,1.74-16.1,4.67c-6.42-4.9-10.58-12.49-10.58-21.16,0-14.75,11.99-26.68,26.68-26.68ZM121.05,273.33h-14.86c-4.28,0-8.22-2.42-10.07-6.25-3.38-7.09-8.44-13.4-6.81-21.95.62-2.25-.23-4.84-2.53-5.8-7.09-2.25-7.77,8.55-8.16,12.89-.17,2.65.06,5.4.56,8.16,1.35,7.09-3.88,13-11.14,13h-18.8c-11.76,0-21.27-9.51-21.27-21.27v-98.66c0-11.76,9.51-21.27,21.27-21.27h71.87c11.76,0,21.27,9.51,21.27,21.27v98.61c0,11.76-9.51,21.27-21.27,21.27h-.06Z"/>
</svg>